# xmcd CD database file
#
# Track frame offsets:
#	150
#	15874
#	29805
#	45331
#	59545
#	73523
#	92625
#	107155
#	124598
#	141009
#	156243
#
# Disc length: 2301 seconds
#
# Revision: 0
# Processed by: cddbd v1.5.2PL0 Copyright (c) Steve Scherf et al.
# Submitted via: CDex 1.70
#
DISCID=8d08fb0b
DTITLE=James Dupre - It's All Happening
DYEAR=2010
DGENRE=Country
TTITLE0=Ring on the Bar
TTITLE1=I'm Good
TTITLE2=Drive
TTITLE3=Who'll Stop the Rain
TTITLE4=Deep Down
TTITLE5=Postcard from Elvis
TTITLE6=Alright Tonight
TTITLE7=For a Dancer
TTITLE8=Knee Deep in a River
TTITLE9=Memories of Heaven
TTITLE10=A Hero in my Eyes
EXTD=YEAR: 2010
EXTT0=
EXTT1=
EXTT2=
EXTT3=
EXTT4=
EXTT5=
EXTT6=
EXTT7=
EXTT8=
EXTT9=
EXTT10=
PLAYORDER=
